<?xml version="1.0" encoding="utf-8"?>
<!-- Generator: Adobe Illustrator 24.1.0, SVG Export Plug-In . SVG Version: 6.00 Build 0)  -->
<svg version="1.1" id="Capa_1" xmlns="http://www.w3.org/2000/svg" xmlns:xlink="http://www.w3.org/1999/xlink" x="0px" y="0px"
	 viewBox="0 0 595.3 841.9" style="enable-background:new 0 0 595.3 841.9;" xml:space="preserve">
<style type="text/css">
	.st0{fill:#128285;}
	.st1{fill:#DE3E89;}
	.st2{fill:#D0367C;}
</style>
<g>
	<path class="st0" d="M231.2,425.1c-3.3-0.7-22.8-47-24.2-50.3c-1.3-3.3,10.4,4.6,10.4,4.6s15,28.7,17.6,31.3
		c2.2,2.2,42,0.7,55.2,0.2c0.5-51,0.9-99.1,1.4-138.3c-1.5-3.4-3.5-5.5-5.6-5.5c-3.9,0-68.5-0.7-69.2-5.2c-0.7-4.6-2-41.8-1.3-48.3
		l9.8,3.3c0,0,0.7,33.3,5.9,35.3c4.4,1.7,47.4,1.4,60.7,1.3c0.4-33.2,0.8-57.9,1.3-69.2c8.5-22.2,9.8-2,9.8-2
		c-0.1,7,0.1,24.2,0.4,48.4c11.5,0.3,60.9,1.7,65.5,0.6c5.2-1.3,3.9-68.5,3.9-68.5l11.8-12.4c0,3.3,0.7,86.2-3.3,90.7
		c-3.5,4.1-65.3,2.4-77.5,10.6c0.5,26.6,1.1,58.9,2,94.4c10.7-0.3,48.7-1.4,52.1-2.5c3.9-1.3,3.3-27.4,3.3-27.4l8.5,3.9
		c0.7,4.6-0.7,33.9-3.9,34.6c-2.9,0.6-48.5,3.7-59.6,4.4c0.7,28.9,1.5,59.5,2.4,90.6c18.3,1.5,90.3,7.6,93.7,8.1
		c3.9,0.7,12.4-35.9,12.4-35.9h7.8c0,5.2-9.1,44.4-13.1,47c-3.9,2.6-94.7-2-97.3,0c-1,0.8-2.1,2.8-2.9,4.9
		c1.5,50.8,3.3,101.8,5.2,147.3c12.5,2.1,27.4,3,30.3,1.8c3.3-1.3,12.4-28.1,12.4-28.1l6.5-2c-1.3,12.4-9.1,38.5-13.1,41.1
		c-3.3,2.2-26.1,1.6-35.5,4.1c3,67.5,6.4,120.4,10,138.3c0,10.4-32,17.6-41.1,7.2c2.1-24.9,3.6-119.4,4.8-226.6
		c-11.5-3.3-46.8-5.1-55.1-5.1c-3.9,0-9.8-49-8.5-57.4l6.5,2.6c1.3,15,6.5,37.2,9.1,40.5c2.2,2.8,34.3,4.1,48.1,2.5
		c0.4-37,0.8-75.2,1.1-112.3C277,427.2,234,425.7,231.2,425.1z"/>
	<path class="st1" d="M387.6,608.6c-7.6-1.9-47-8.7-57.4-11.3s-23.5-26.1,2.6-30.5c-3.5-17.4,32.2-25.2,42.6-6.1
		c22.6-13.9,33.1,8.7,21.8,24.4C408.5,599.9,405,612.9,387.6,608.6z"/>
	<path class="st1" d="M263.1,505c-7.2,0-48.7-0.9-60.9-1.7c-12.2-0.9-18.3-7.8-9.6-15.7c-12.2-12.2,6.1-27,15.7-20.9
		c1.7-20,22.6-21.8,27-12.2c13.1-14.8,38.3-2.6,32.2,16.5c15.7,3.5,14.8,19.1,2.6,22.6C277.9,498,276.2,505,263.1,505z"/>
	<path class="st1" d="M454.6,417.1c5.5,2.9,12,6.9,11.3,9.6c-0.8,3.1-11,2.7-20,2.6c-48.1-0.4-57.6-0.2-72.2-2.6
		c-15.7-2.6-11.3-27,7-20.9c-3.5-8-0.4-17.3,7-21.8c7.5-4.5,17.3-2.6,22.6,4.4c3.4-11.8,15.5-18,25.2-14.8
		c7.7,2.5,13.3,10.7,13.1,20c6,1,10.6,5.7,11.3,11.3C460.8,412.1,454.9,416.9,454.6,417.1z"/>
	<path class="st1" d="M427.7,319.6c4.4,1.1,9.6,2.8,9.7,5c0.2,4.7-21.7,10.9-29.7,10.7c-27-0.9-75.7-3.5-84.4-4.4
		c-8.7-0.9-10.4-20.9,5.2-20c-0.8-1.3-7.2-11.2-3.5-20.9c4.1-10.6,18.7-17.2,33.9-12.2c3.8-12,15.6-18.8,26.1-16.5
		c8,1.7,14.5,8.6,16.5,17.4c10-2.9,20.7,0.2,27,7.8C436.1,295.6,435.9,309.7,427.7,319.6z"/>
	<path class="st1" d="M256.2,354.4c23.5-2.6,23.5,21.8,14.8,25.2c-8.7,3.5-104.4,2.6-135.8,1.7c-31.3-0.9-54-6.1-54-13.9
		s29.6-17.4,42.6-6.1c-8.7-20,17.4-48.7,42.6-35.7c-2.6-25.2,66.2-45.3,70.5-9.6C260.5,316.1,267.5,343.1,256.2,354.4z"/>
	<path class="st1" d="M258.8,230.8c-13.9,0.5-64.4,0-73.1-1.7s-11.3-15.7,2.6-16.5c4.4-19.1,31.3-27.9,38.3-15.7
		c15.7-10.4,38.3-5.2,34.8,10.4C280.6,208.2,281.4,229.9,258.8,230.8z"/>
	<path class="st2" d="M478.1,131.6c20.9-5.2,35.7,30.5-3.5,32.2s-140.1,0-161-1.7s-67.9,1.7-74.9,1.7s9.6-41.8,33.1-25.2
		c-7.8-26.1,14.8-44.4,30.5-33.1c1.7-28.7,33.9-7.8,33.9-7.8c-11.3-20.9,31.3-47.9,62.7-40.9c31.3,7,30.5,24.4,30.5,24.4
		c20-5.2,30.5,17.4,19.1,28.7C467.7,103.7,486.8,115,478.1,131.6z"/>
	<path class="st1" d="M378,143.8c18.3-5.2,45.3,18.3,35.7,32.2s-47.9,14.8-71.4,13.9c-23.5-0.9-151.5-0.9-166.2-2.6
		c-14.8-1.7-20-60.1,34.8-40.9c-9.6-23.5,13.9-40.9,29.6-29.6c-12.2-27,27-66.2,54.8-38.3C311,47.2,358,73.3,344,102.9
		C374.6,100.2,392,124.6,378,143.8z"/>
</g>
</svg>
